<?xml version="1.0" standalone="no"?>
<!DOCTYPE svg PUBLIC "-//W3C//DTD SVG 20010904//EN"
 "http://www.w3.org/TR/2001/REC-SVG-20010904/DTD/svg10.dtd">
<svg version="1.0" xmlns="http://www.w3.org/2000/svg"
 width="331.000000pt" height="331.000000pt" viewBox="0 0 331.000000 331.000000"
 preserveAspectRatio="xMidYMid meet">
<metadata>
Created by potrace 1.14, written by Peter Selinger 2001-2017
</metadata>
<g transform="translate(0.000000,331.000000) scale(0.100000,-0.100000)"
fill="#000000" stroke="none">
<path d="M1770 3010 c0 -5 5 -10 11 -10 5 0 7 5 4 10 -3 6 -8 10 -11 10 -2 0
-4 -4 -4 -10z"/>
<path d="M1655 2999 c-4 -6 -5 -12 -2 -15 2 -3 7 2 10 11 7 17 1 20 -8 4z"/>
<path d="M1721 2984 c6 -7 6 -14 1 -18 -6 -3 -13 1 -16 10 -5 14 -10 14 -41
-5 -21 -12 -35 -16 -35 -9 0 6 -2 9 -5 6 -9 -9 7 -39 18 -35 12 4 52 -32 44
-39 -2 -2 -10 2 -17 11 -14 17 -40 20 -40 6 0 -5 -14 -16 -31 -25 -26 -13 -29
-13 -19 -1 7 9 8 15 2 15 -19 0 -32 -26 -19 -39 9 -10 6 -10 -11 0 -12 8 -18
15 -12 17 6 2 8 8 5 12 -3 5 -12 7 -20 4 -8 -4 -12 -11 -8 -17 4 -6 1 -7 -7
-2 -10 6 -9 11 6 22 18 13 18 14 -1 31 -16 15 -17 15 -6 0 10 -14 9 -18 -8
-27 -12 -7 -18 -17 -15 -26 4 -8 1 -15 -6 -15 -6 0 -8 5 -5 10 3 6 1 10 -6 10
-7 0 -5 8 6 20 10 11 15 23 12 27 -4 3 -7 1 -7 -6 0 -7 -5 -9 -10 -6 -6 4 -9
1 -8 -7 2 -8 -4 -12 -14 -10 -10 2 -18 -3 -18 -10 0 -9 -3 -9 -10 2 -7 12 -10
12 -10 1 0 -7 -6 -11 -14 -8 -10 4 -13 1 -9 -9 4 -11 9 -12 19 -3 8 6 14 7 14
3 0 -5 -9 -15 -21 -22 -12 -8 -18 -9 -15 -3 4 5 -2 9 -14 8 -11 -1 -20 -4 -20
-8 0 -4 -7 -10 -16 -13 -8 -3 -12 -2 -9 4 3 6 1 10 -4 10 -6 0 -11 -8 -11 -17
0 -15 -2 -16 -10 -3 -9 13 -14 7 -11 -12 0 -4 -7 -4 -16 -1 -10 4 -14 2 -9 -5
4 -7 -1 -10 -14 -7 -13 2 -20 -1 -20 -11 0 -8 -5 -14 -11 -14 -5 0 -7 -4 -4
-10 4 -6 -1 -7 -11 -3 -13 5 -15 3 -9 -7 5 -9 4 -11 -4 -6 -19 12 -44 -14 -30
-30 6 -8 16 -11 22 -7 6 4 7 1 3 -6 -6 -9 -12 -9 -25 3 -19 17 -36 22 -27 7 3
-5 -1 -14 -8 -20 -11 -9 -14 -9 -12 1 1 7 5 18 9 25 4 6 3 14 -2 17 -5 4 -12
2 -16 -4 -4 -6 -12 -7 -18 -4 -7 4 -9 4 -5 -1 4 -4 0 -14 -10 -22 -15 -13 -15
-13 6 -3 15 7 22 7 22 0 0 -5 -6 -10 -14 -10 -9 0 -12 -8 -9 -22 4 -22 4 -22
-9 1 -7 13 -21 25 -30 27 -15 2 -16 -1 -7 -17 5 -11 15 -16 21 -13 7 4 8 2 4
-5 -6 -8 -12 -9 -20 -2 -9 7 -16 7 -25 -2 -11 -10 -12 -8 -6 11 4 14 2 22 -6
22 -7 0 -9 -3 -6 -7 4 -3 0 -14 -9 -24 -10 -11 -12 -19 -4 -24 5 -3 8 -10 5
-15 -3 -5 4 -7 15 -5 11 2 18 0 15 -6 -4 -5 -10 -7 -15 -4 -4 2 -13 -9 -20
-26 -8 -19 -18 -28 -27 -25 -8 4 -17 6 -19 6 -3 0 -2 6 2 13 5 8 2 8 -9 -2
-18 -14 -23 -26 -8 -16 5 3 13 0 17 -6 4 -7 3 -9 -3 -6 -11 7 -37 -18 -44 -41
-3 -8 -9 -4 -18 9 -11 19 -11 21 4 16 10 -5 14 -3 9 5 -5 7 -3 8 6 3 9 -6 11
-4 5 5 -6 9 -4 11 5 5 9 -5 11 -4 6 4 -4 6 -3 18 3 25 8 9 7 13 -4 13 -8 0
-13 -2 -10 -5 7 -7 -14 -42 -25 -42 -5 0 -7 8 -4 18 5 13 4 14 -4 3 -8 -11 -9
-39 -2 -48 3 -4 7 -20 9 -34 0 -5 6 -7 13 -3 7 4 8 3 4 -5 -6 -9 -11 -9 -22 0
-11 9 -14 8 -14 -4 0 -8 6 -18 13 -20 9 -4 9 -6 -1 -6 -7 -1 -11 -5 -7 -11 3
-5 13 -7 23 -4 14 5 14 3 -2 -6 -14 -10 -20 -10 -26 0 -6 9 -12 10 -26 1 -13
-7 -14 -10 -5 -11 17 0 5 -15 -12 -15 -7 0 -12 -12 -11 -27 1 -18 -3 -25 -12
-21 -8 3 -11 10 -7 16 3 6 1 7 -5 3 -6 -4 -8 -14 -5 -23 4 -11 3 -14 -6 -9 -8
6 -11 2 -9 -9 2 -10 -3 -20 -11 -23 -8 -3 -11 0 -7 7 5 7 1 9 -9 5 -18 -7 -18
-7 14 -24 15 -8 21 -8 17 -1 -4 6 -5 11 -2 11 3 0 10 -9 16 -21 11 -19 10 -20
-9 -9 -12 6 -21 8 -21 4 0 -3 -8 0 -17 7 -16 13 -17 12 -5 -3 11 -14 10 -18
-4 -26 -15 -8 -15 -9 0 -15 11 -5 15 -3 10 5 -4 6 -3 8 3 5 5 -3 9 -16 7 -29
-1 -13 -3 -30 -3 -38 -1 -13 -2 -13 -11 0 -5 8 -5 17 -1 20 5 3 3 10 -4 17
-11 10 -12 3 -8 -40 3 -29 11 -56 17 -60 7 -6 4 -7 -6 -3 -13 4 -18 0 -18 -14
0 -14 6 -18 20 -15 12 2 18 0 15 -6 -4 -5 -10 -7 -15 -4 -5 3 -11 1 -15 -4 -3
-5 2 -14 11 -19 15 -8 15 -10 0 -15 -10 -4 -15 -3 -11 3 8 13 2 13 -30 -2 -14
-6 -24 -17 -21 -24 7 -19 -5 -25 -23 -12 -13 10 -14 10 -4 -2 10 -11 9 -16 -5
-28 -11 -9 -8 -9 10 2 38 22 48 19 18 -6 -16 -14 -19 -19 -7 -15 9 4 17 2 17
-4 0 -6 5 -7 12 -3 7 4 8 3 4 -4 -4 -7 -2 -12 3 -12 6 0 11 -5 11 -10 0 -6
-12 -3 -27 7 -16 9 -24 13 -20 8 4 -5 -2 -14 -13 -20 -21 -11 -21 -11 3 -22
18 -9 24 -8 24 2 0 7 -6 11 -14 8 -7 -3 -13 -3 -13 0 0 16 31 12 47 -5 10 -12
12 -18 6 -14 -7 4 -13 3 -13 -2 0 -6 -11 -9 -25 -8 -14 0 -25 4 -25 9 0 4 -8
7 -17 7 -17 -1 -17 -1 -1 -11 10 -5 18 -15 18 -20 0 -6 -6 -7 -13 -2 -21 13
-36 12 -30 -4 4 -11 8 -11 13 -3 6 9 9 9 14 1 4 -6 11 -9 16 -6 5 3 12 0 15
-5 5 -7 12 -5 21 7 7 10 14 13 14 6 0 -6 -5 -15 -10 -18 -6 -4 -7 -12 -4 -18
5 -8 3 -8 -7 1 -18 16 -30 15 -23 -3 3 -8 15 -17 26 -21 19 -6 19 -6 1 -19
-16 -12 -17 -14 -1 -20 9 -4 15 -12 14 -18 -3 -20 -17 -38 -26 -32 -5 3 -8 -4
-7 -15 2 -25 5 -25 27 3 16 19 21 20 32 8 9 -10 10 -12 0 -7 -12 7 -72 -43
-72 -60 0 -5 5 -3 12 4 16 16 25 15 32 -4 5 -13 4 -14 -7 -6 -8 7 -17 9 -20 5
-4 -3 1 -12 11 -20 12 -9 13 -12 2 -8 -8 3 -21 -4 -28 -15 -7 -11 -8 -20 -3
-20 6 0 13 5 16 10 9 15 22 12 29 -6 5 -14 4 -15 -8 -5 -9 8 -16 8 -20 2 -6
-8 30 -27 45 -24 3 1 6 -5 6 -13 0 -10 -4 -11 -11 -4 -16 16 -30 12 -16 -5 7
-8 8 -15 3 -15 -5 0 -9 -14 -9 -30 0 -23 3 -29 15 -25 11 4 10 1 -3 -14 -10
-11 -22 -18 -26 -16 -9 6 -23 -25 -15 -33 3 -3 5 0 5 6 0 7 4 12 9 12 5 0 9
-11 9 -25 0 -13 -4 -22 -9 -19 -5 3 -9 0 -9 -5 0 -22 33 -6 38 17 1 8 -2 11
-8 7 -6 -4 -6 3 1 19 6 13 21 27 33 29 20 5 20 5 -2 -10 -12 -8 -22 -20 -22
-26 0 -7 4 -7 12 1 7 7 16 12 21 12 5 0 -1 -8 -13 -18 l-23 -19 22 -15 c20
-14 20 -16 5 -22 -12 -5 -14 -10 -7 -17 12 -12 6 -49 -8 -49 -12 0 -11 13 1
28 5 7 2 5 -8 -4 -16 -14 -16 -16 1 -29 10 -7 18 -16 18 -19 -1 -3 -1 -7 0 -8
7 -24 7 -48 0 -44 -5 3 -15 -2 -22 -12 -13 -15 -12 -16 4 -3 11 9 17 10 17 2
0 -20 2 -26 11 -37 5 -6 6 -14 2 -17 -3 -4 -12 1 -20 11 -13 15 -13 15 -3 -5
15 -31 26 -35 41 -16 8 9 9 14 3 10 -6 -3 -11 0 -11 8 0 21 10 19 25 -6 8 -12
9 -18 4 -15 -14 8 -22 -18 -11 -35 5 -8 9 -18 9 -24 0 -5 -4 -4 -9 3 -7 11 -9
11 -14 -1 -6 -15 37 -67 55 -67 5 0 7 -4 4 -9 -6 -9 42 -36 60 -33 6 1 17 -6
25 -15 11 -15 11 -16 -1 -5 -8 6 -19 12 -25 12 -5 -1 0 -9 12 -19 12 -10 19
-21 16 -25 -6 -6 12 -10 30 -7 5 1 6 -3 2 -9 -7 -12 -45 5 -45 21 0 6 -5 7
-11 3 -8 -4 -8 -9 -1 -13 6 -4 9 -19 8 -33 -2 -15 0 -25 5 -23 4 3 10 1 13 -4
4 -5 2 -12 -4 -16 -17 -11 -11 -21 16 -23 15 -1 23 2 19 8 -4 6 -10 8 -15 5
-5 -3 -8 3 -7 14 0 11 6 17 14 14 7 -3 10 -9 7 -14 -3 -5 0 -9 6 -9 7 0 9 -8
5 -19 -3 -11 1 -25 9 -34 11 -11 12 -17 3 -28 -10 -11 -9 -11 3 -2 9 7 21 8
29 4 7 -5 23 -7 37 -5 13 1 25 -2 25 -7 1 -5 2 -14 3 -20 0 -5 12 -18 25 -28
20 -16 21 -19 7 -24 -11 -5 -15 -3 -10 5 5 7 3 8 -6 3 -9 -6 -11 -4 -5 6 6 11
5 12 -5 2 -8 -7 -11 -16 -7 -20 13 -12 52 -10 63 5 9 13 11 12 11 -2 0 -15 -9
-20 -32 -17 -5 1 2 -10 17 -23 15 -13 24 -27 21 -30 -4 -3 -1 -6 5 -6 7 0 12
5 12 12 0 6 3 8 7 5 3 -4 12 -2 19 4 17 14 38 -23 23 -38 -8 -8 -7 -13 0 -18
6 -3 10 -3 9 2 -2 4 2 8 7 8 6 0 9 -4 7 -8 -1 -5 2 -6 7 -3 13 8 42 -4 35 -15
-3 -5 2 -6 11 -2 12 4 13 8 5 13 -9 6 -9 9 1 13 9 4 7 6 -6 7 -11 1 -24 2 -29
1 -14 -3 -36 21 -35 38 0 11 3 9 9 -7 9 -22 32 -32 28 -11 -2 6 4 14 12 16 13
4 13 3 0 -6 -13 -10 -13 -11 0 -12 8 -1 18 -1 23 0 7 1 11 -15 8 -33 -1 -5 6
-5 16 -2 9 4 14 4 10 0 -4 -4 -2 -13 4 -21 10 -11 15 -11 28 -1 14 11 14 11 4
-3 -7 -9 -10 -19 -6 -22 3 -4 0 -13 -7 -22 -7 -9 -10 -18 -6 -22 3 -3 6 -1 6
7 0 9 3 10 13 1 8 -6 17 -8 20 -4 4 3 13 0 22 -7 8 -7 15 -9 16 -4 0 5 5 0 10
-11 9 -19 9 -18 5 2 -3 15 1 23 10 23 8 0 11 7 8 17 -3 10 6 0 21 -22 18 -27
25 -33 22 -18 -3 13 -1 23 5 23 5 0 6 5 2 12 -4 7 -3 8 4 4 6 -4 9 -13 6 -20
-3 -7 2 -19 11 -26 12 -10 18 -10 32 1 15 12 16 12 10 -3 -3 -10 -1 -20 5 -24
6 -4 9 -3 5 2 -3 5 1 20 9 34 7 14 13 20 14 14 0 -6 19 -10 48 -9 53 2 72 -3
72 -17 0 -6 -6 -6 -14 1 -11 10 -20 10 -38 0 -13 -7 -24 -12 -25 -11 -9 6 -23
0 -23 -10 0 -6 3 -8 7 -5 3 4 12 2 20 -5 11 -9 13 -8 11 2 -2 7 3 15 11 18 9
3 11 0 6 -8 -6 -9 -4 -11 5 -5 10 6 12 4 7 -8 -3 -10 -2 -17 3 -17 14 0 12 24
-2 38 -8 8 -8 12 -1 12 14 0 34 -25 28 -33 -3 -4 -2 -5 2 -2 3 3 12 0 20 -7
11 -9 12 -7 6 8 -6 17 -5 18 12 4 14 -11 17 -12 11 -1 -6 9 -5 12 5 9 8 -3 13
-14 11 -24 -2 -16 -1 -17 7 -4 6 8 11 11 11 5 0 -5 7 -1 15 9 13 17 15 17 21
3 3 -10 11 -17 16 -17 6 0 5 6 -2 15 -14 17 0 21 16 5 8 -8 15 -6 23 4 10 12
9 14 -6 11 -10 -1 -26 2 -37 7 -14 8 -17 7 -11 -4 5 -7 5 -10 0 -6 -4 4 -17 3
-28 -3 -12 -7 -17 -7 -13 -1 4 6 -10 9 -36 7 -24 -1 -37 -1 -30 2 6 3 10 9 7
13 -3 5 0 12 6 16 7 4 9 3 5 -4 -3 -6 -2 -13 3 -16 5 -3 11 1 15 9 3 8 11 15
18 14 10 0 10 -2 0 -6 -6 -2 -9 -9 -6 -14 3 -6 12 -5 22 3 12 10 14 10 8 1 -4
-7 -2 -13 3 -13 6 0 11 4 11 9 0 6 9 9 20 8 11 -1 20 -4 20 -7 0 -4 7 -7 15
-7 20 0 19 7 -2 24 -16 13 -16 13 5 3 12 -6 22 -16 22 -23 0 -7 5 -4 11 6 10
18 12 18 30 1 21 -19 26 -6 7 16 -7 8 -3 6 10 -4 28 -24 28 -32 -2 -32 -14 0
-23 3 -20 7 2 4 0 10 -4 13 -5 3 -14 -6 -21 -21 -11 -24 -11 -25 5 -12 16 12
17 12 11 -3 -3 -10 -2 -18 3 -18 6 0 10 7 10 16 0 10 4 12 13 7 6 -4 17 -8 22
-8 6 -1 9 -7 7 -14 -1 -7 10 -3 26 10 17 13 29 29 28 34 0 6 5 9 12 7 6 -1 12
2 12 8 0 5 5 10 11 10 8 0 8 -5 -1 -15 -7 -8 -17 -12 -23 -8 -5 3 -7 2 -4 -4
4 -6 19 -8 34 -6 16 2 36 4 46 4 9 0 17 4 17 8 0 12 -33 10 -50 -3 -13 -10
-13 -9 -1 7 8 10 20 16 27 13 6 -2 15 -2 19 2 4 4 16 7 28 7 12 1 21 6 19 13
-3 15 36 -5 55 -28 10 -13 11 -13 10 0 -2 8 -7 22 -12 30 -8 13 -7 13 10 0 24
-20 24 -19 40 10 13 24 14 24 12 3 -1 -21 -9 -27 -28 -25 -4 1 -6 -9 -5 -22 1
-25 16 -25 16 0 0 17 16 19 23 2 4 -10 6 -10 6 0 1 7 6 10 13 6 7 -4 8 -3 4 4
-4 7 -2 12 3 12 6 0 11 -6 11 -12 1 -7 7 -2 14 11 9 16 16 20 20 12 6 -9 11
-9 22 0 11 9 11 15 3 25 -6 8 -8 14 -4 14 4 0 1 8 -6 17 -8 9 -9 14 -2 10 7
-4 13 0 16 10 4 17 5 17 6 1 1 -11 7 -15 15 -12 10 4 13 0 11 -13 -2 -10 -4
-20 -4 -22 -1 -3 -7 3 -14 13 -12 16 -14 16 -14 3 0 -9 7 -19 15 -22 12 -5 12
-9 -4 -28 l-19 -22 22 19 c13 10 20 23 17 27 -3 5 6 13 20 19 32 12 34 20 4
13 -23 -4 -23 -4 -3 12 18 14 21 14 32 -2 7 -9 13 -12 13 -7 0 6 -5 15 -12 22
-9 9 -9 12 -1 12 7 0 15 -5 18 -10 8 -13 25 -3 25 13 0 7 -4 6 -10 -3 -5 -8
-10 -13 -11 -10 0 3 -2 15 -5 27 -2 13 1 23 7 23 5 0 8 -4 5 -9 -3 -5 7 -11
24 -13 16 -2 27 -1 24 4 -7 11 3 10 26 -2 17 -9 18 -8 13 7 -6 16 -5 16 11 4
15 -12 17 -12 14 0 -2 10 5 13 22 12 l25 -3 -24 10 c-14 6 -27 7 -30 2 -3 -5
-14 -8 -24 -6 -9 1 -15 -1 -12 -5 6 -11 -45 -5 -57 7 -5 5 -3 9 7 9 8 0 15 -4
15 -9 0 -5 10 -3 23 4 12 7 26 11 31 10 17 -5 36 21 31 42 -6 20 -5 20 6 2 9
-15 13 -16 20 -5 5 8 2 21 -9 34 l-17 20 24 -20 24 -20 -7 22 c-5 14 -2 31 8
44 15 22 15 22 13 1 0 -11 -5 -18 -9 -16 -4 3 -8 -1 -8 -9 0 -15 29 -32 38
-22 3 3 0 5 -6 5 -7 0 -12 4 -12 10 0 5 8 7 18 4 14 -5 14 -4 3 4 -18 13 -25
96 -8 85 7 -4 6 1 -2 10 -7 9 -19 17 -25 17 -6 0 -4 -5 4 -10 9 -6 10 -10 3
-10 -6 0 -19 7 -27 16 -18 17 -21 28 -6 19 6 -3 11 -3 11 2 6 34 5 52 -1 48
-4 -3 -10 1 -13 9 -7 18 -57 18 -57 0 0 -8 -5 -14 -11 -14 -7 0 -5 10 6 26 16
25 16 25 -5 14 -18 -10 -21 -10 -14 2 11 17 12 78 1 71 -5 -3 -6 -11 -3 -19 7
-18 -6 -18 -30 2 -10 8 -14 13 -7 9 7 -3 17 4 23 15 6 11 16 17 22 14 7 -4 8
-3 4 4 -11 18 -24 14 -31 -8 -4 -11 -11 -18 -16 -14 -6 3 -5 12 3 22 11 15 11
15 -3 4 -13 -10 -19 -9 -29 3 -12 14 -15 13 -32 -5 -11 -12 -27 -19 -35 -16
-8 3 -11 1 -8 -4 3 -6 1 -10 -4 -10 -6 0 -11 -7 -11 -16 0 -8 -4 -12 -10 -9
-5 3 -10 2 -10 -4 0 -5 9 -9 20 -8 12 1 18 7 16 14 -3 7 4 17 14 23 20 10 20
10 3 -25 -12 -24 -19 -31 -25 -23 -5 9 -8 8 -8 -4 0 -10 -5 -18 -11 -18 -5 0
-7 4 -4 10 4 6 -1 7 -11 3 -12 -4 -15 -3 -10 5 5 8 2 10 -9 5 -13 -4 -14 -8
-4 -14 7 -4 13 -16 14 -26 1 -14 -6 -19 -24 -19 -40 -1 -55 -7 -67 -28 -11
-18 -12 -17 -11 7 0 20 4 25 19 22 10 -2 16 0 13 5 -3 6 1 7 9 4 9 -3 16 -1
16 6 0 6 4 9 8 6 4 -2 14 0 22 6 12 8 12 9 -2 4 -11 -3 -18 0 -18 7 0 7 -5 4
-11 -5 -5 -10 -16 -15 -24 -12 -8 4 -15 1 -15 -7 0 -7 -3 -9 -7 -6 -11 12 -32
-14 -26 -31 5 -12 0 -10 -17 5 -19 18 -27 20 -44 11 -31 -16 -30 -16 5 -15 19
1 33 -3 35 -11 1 -7 0 -8 -3 -2 -3 8 -9 7 -19 -1 -19 -15 -18 -30 1 -23 8 4
15 2 15 -3 0 -5 -11 -9 -24 -9 -20 0 -23 3 -16 17 13 24 -33 32 -56 10 -15
-15 -16 -15 -11 1 4 11 2 17 -5 15 -7 -1 -12 3 -13 10 0 6 -4 15 -10 20 -6 4
-7 4 -2 -1 4 -5 0 -17 -9 -27 -12 -13 -12 -19 -3 -25 7 -4 10 -3 5 4 -3 6 -2
13 3 16 16 10 24 -14 10 -30 -12 -14 -15 -14 -31 6 -10 12 -18 17 -18 12 0 -6
5 -14 10 -17 6 -3 10 -11 10 -17 0 -7 -4 -7 -13 0 -7 6 -18 7 -25 3 -6 -4 -25
-6 -42 -5 -19 1 -28 -2 -23 -9 4 -6 0 -8 -9 -5 -8 4 -15 1 -15 -6 0 -7 10 -12
23 -10 16 1 21 -2 17 -13 -5 -12 -7 -12 -14 -2 -4 8 -11 10 -15 6 -4 -3 -1
-15 7 -24 13 -16 12 -17 -3 -5 -13 10 -17 10 -22 0 -3 -7 -3 -2 1 12 5 21 4
23 -9 13 -8 -7 -19 -9 -23 -5 -5 4 -5 -2 -2 -13 7 -18 6 -19 -6 -3 -8 10 -17
15 -20 11 -4 -3 -7 -2 -7 3 0 5 -12 11 -27 12 -34 3 -39 8 -23 27 7 8 8 15 2
15 -5 0 -12 -7 -16 -15 -3 -8 -10 -15 -16 -15 -6 0 -9 4 -5 9 3 6 -5 15 -17
21 -21 10 -21 10 -6 -3 10 -8 15 -17 12 -20 -4 -4 -18 3 -32 14 -17 13 -28 16
-32 8 -4 -6 -11 -11 -16 -11 -5 1 -8 -6 -6 -14 2 -11 -4 -15 -20 -12 -15 2
-22 -2 -20 -10 1 -8 -2 -11 -8 -7 -8 5 -7 11 1 21 13 16 -1 19 -19 4 -9 -7 -9
-7 -2 2 19 23 10 31 -12 12 -23 -19 -23 -19 -6 1 24 29 24 30 8 50 -13 16 -13
18 0 13 8 -2 15 -13 15 -24 0 -13 7 -19 23 -18 16 1 20 -2 12 -11 -5 -6 -7
-15 -3 -18 12 -13 18 -7 19 18 2 23 -7 30 -30 26 -5 -1 -6 5 -3 13 4 9 1 15
-6 13 -7 -1 -11 3 -10 8 1 6 -10 11 -24 12 -16 0 -21 -2 -13 -7 8 -5 9 -10 2
-14 -6 -3 -13 -2 -17 4 -8 13 -35 13 -35 -1 0 -5 5 -7 10 -4 19 12 31 -5 19
-26 -6 -12 -13 -18 -16 -15 -3 3 0 12 7 21 8 9 8 15 2 15 -6 0 -14 -5 -17 -10
-3 -5 -14 -9 -23 -9 -15 1 -15 2 0 6 15 4 16 8 7 25 -7 13 -7 18 -1 14 6 -3
13 -2 17 3 3 6 -3 8 -15 6 -13 -3 -20 2 -21 13 0 11 -2 12 -6 4 -2 -6 -9 -10
-13 -7 -5 3 -12 0 -16 -6 -5 -8 -3 -9 5 -4 10 6 11 3 2 -14 -14 -25 -23 -28
-14 -4 5 12 3 14 -8 8 -11 -7 -12 -6 -2 7 7 8 10 18 6 21 -3 4 1 7 10 7 19 0
23 15 5 26 -6 4 -8 3 -5 -3 9 -15 -16 -23 -34 -12 -19 12 -42 11 -34 -1 4 -6
10 -8 14 -6 11 7 36 -12 28 -21 -5 -4 -12 -2 -16 6 -5 7 -11 11 -14 9 -3 -1
-17 7 -30 19 -19 16 -28 18 -38 10 -11 -10 -11 -9 -1 5 8 10 9 19 3 22 -11 7
-9 32 4 43 4 4 5 2 0 -6 -6 -10 -4 -12 6 -6 12 7 12 6 1 -7 -9 -11 -10 -18 -2
-23 5 -3 10 1 10 10 0 9 5 13 10 10 25 -15 7 12 -20 30 -16 11 -30 26 -30 33
0 6 -3 13 -7 13 -34 6 -53 5 -53 -2 0 -5 -5 -9 -11 -9 -5 0 -7 5 -4 10 3 6 2
10 -3 10 -5 0 -17 12 -27 26 -10 15 -12 23 -4 19 9 -6 11 -3 6 9 -4 11 -3 15
4 11 6 -4 8 -14 5 -22 -3 -8 -1 -11 4 -8 6 3 7 -1 4 -9 -3 -9 -1 -16 4 -16 13
0 7 37 -8 56 -7 7 -8 19 -4 26 5 8 1 8 -11 -2 -16 -14 -17 -13 -11 8 6 18 4
21 -11 17 -10 -3 -9 -1 5 6 12 7 22 19 22 28 -1 14 -2 13 -11 -1 -11 -20 -29
-24 -29 -7 0 5 5 7 10 4 9 -5 15 16 11 38 -1 5 9 6 21 2 19 -5 18 -3 -5 10
-15 9 -31 14 -36 11 -5 -3 -7 8 -6 24 1 17 -1 33 -6 36 -5 3 -9 11 -9 17 0 7
4 6 10 -3 8 -13 10 -12 10 3 0 10 4 15 10 12 6 -3 7 1 4 9 -3 9 -10 16 -16 16
-5 0 -7 -4 -4 -8 3 -5 -1 -9 -9 -9 -8 0 -12 4 -9 9 3 4 0 8 -5 8 -6 0 -11 5
-11 11 0 8 5 8 15 -1 10 -9 15 -9 15 -1 0 6 3 10 8 10 4 -1 14 -1 22 0 13 1
13 2 0 11 -9 5 -19 5 -27 -2 -20 -17 -15 7 5 25 10 10 21 16 23 15 2 -2 1 1
-3 6 -4 5 -14 1 -23 -8 -9 -9 -24 -16 -33 -15 -12 0 -10 3 6 9 19 8 21 13 13
28 -7 13 -7 22 1 30 7 7 8 12 3 12 -5 0 0 7 11 16 18 15 18 15 -3 5 -14 -7
-24 -8 -28 -1 -3 5 0 10 8 10 24 0 28 29 6 41 -14 7 -17 14 -11 22 11 15 12
48 0 41 -4 -3 -8 -1 -8 5 0 5 8 12 18 14 16 4 16 5 0 6 -10 0 -22 -8 -28 -19
-13 -25 -30 -26 -30 -2 0 14 2 15 10 2 7 -11 10 -7 10 18 0 17 -5 32 -11 32
-5 0 -8 -4 -5 -9 3 -5 -1 -14 -9 -21 -10 -9 -15 -9 -15 -1 0 6 5 11 11 11 8 0
7 5 -1 16 -8 8 -9 14 -4 13 21 -4 35 2 29 11 -4 6 -10 8 -14 6 -4 -3 -8 5 -8
17 -2 17 0 19 7 7 5 -8 10 -10 11 -5 4 33 3 42 -9 57 -9 11 -10 18 -2 23 5 3
8 12 4 18 -3 7 1 4 9 -5 11 -14 16 -15 27 -5 12 10 12 9 3 -3 -13 -18 -13 -51
0 -43 5 3 3 -5 -4 -18 -7 -13 -12 -25 -11 -26 1 -2 2 -4 1 -5 -6 -21 -5 -37 2
-33 5 4 6 0 3 -8 -4 -10 2 -14 20 -14 14 0 26 4 26 9 0 5 -4 7 -9 4 -5 -3 -14
1 -20 8 -8 9 -8 17 -2 20 5 3 11 3 14 -1 2 -5 2 -2 1 5 -2 6 1 12 6 12 6 0 10
5 10 11 0 8 -4 8 -14 0 -9 -7 -17 -8 -20 -3 -3 6 0 12 8 15 8 3 12 16 11 31
-2 14 1 26 6 26 5 0 1 8 -8 18 -10 10 -21 14 -24 9 -4 -5 -9 -5 -13 1 -5 9 14
20 47 28 4 1 9 3 12 4 3 1 9 3 14 4 5 0 13 5 18 10 4 5 3 6 -3 3 -7 -4 -17 0
-24 8 -7 8 -18 15 -24 15 -6 0 -2 -7 8 -15 11 -8 18 -15 15 -16 -2 0 -12 -2
-21 -4 -12 -2 -15 2 -11 13 4 10 -5 5 -20 -10 -28 -30 -37 -34 -37 -18 0 6 8
10 17 10 9 0 13 3 10 7 -4 3 2 13 14 21 15 10 18 17 10 25 -16 16 -13 30 4 23
21 -8 19 11 -2 24 -17 11 -17 11 -1 6 10 -3 20 -1 23 4 4 6 1 10 -6 10 -7 0
-9 3 -6 7 4 3 -1 11 -10 18 -13 9 -13 14 -3 20 9 5 11 4 6 -3 -4 -7 -4 -12 1
-13 4 0 18 -2 31 -5 12 -2 22 1 22 7 0 5 -4 7 -10 4 -5 -3 -10 -2 -10 4 0 5 8
15 18 20 10 6 12 11 4 11 -7 0 -10 5 -7 10 4 6 11 7 17 4 7 -5 8 -2 2 7 -5 8
-7 22 -6 32 2 9 -1 17 -6 17 -6 0 -9 -11 -8 -24 3 -21 1 -23 -15 -13 -13 8
-15 13 -6 17 6 3 13 13 15 24 2 12 -1 15 -8 11 -9 -6 -9 -2 0 15 6 12 14 19
17 16 3 -3 19 4 35 15 l29 21 -5 -26 c-3 -16 -1 -24 5 -20 6 3 8 8 5 11 -2 3
-1 15 4 28 5 13 5 26 -1 32 -6 6 -3 17 6 29 15 19 15 19 8 -1 -6 -18 -5 -19
11 -6 9 8 15 20 12 28 -3 8 -2 11 3 8 5 -3 12 -1 16 5 3 5 0 10 -7 10 -7 1 0
8 16 17 27 14 30 14 43 -3 7 -10 13 -13 13 -8 0 6 -6 16 -12 23 -11 11 -10 13
2 9 11 -4 16 0 16 13 0 14 -3 15 -14 6 -17 -14 -44 -19 -36 -6 3 5 10 7 15 4
5 -4 9 -2 9 2 0 5 9 14 21 21 12 8 18 9 14 3 -3 -6 -2 -11 4 -11 6 0 8 -8 5
-17 -3 -10 2 -5 12 11 15 26 18 28 28 14 11 -15 13 -15 24 3 7 11 17 17 23 14
5 -4 9 -3 8 2 -3 19 2 22 26 13 15 -6 26 -6 30 1 4 5 3 9 -2 8 -21 -4 -46 2
-39 9 4 4 12 8 17 8 5 1 11 2 14 3 3 0 -2 12 -11 26 -9 14 -14 28 -10 32 3 3
6 1 6 -6 0 -7 4 -10 8 -7 5 3 21 -2 37 -10 15 -8 30 -12 33 -9 3 3 12 -1 21
-7 13 -10 14 -10 4 2 -13 14 -19 39 -6 27 3 -4 13 -1 21 6 13 10 14 8 8 -13
-4 -16 0 -12 14 13 24 43 26 44 26 18 0 -11 -4 -17 -8 -15 -4 3 -8 0 -8 -6 0
-7 6 -10 13 -7 6 2 12 8 12 13 0 13 15 34 24 34 4 0 18 -9 31 -20 27 -24 38
-26 20 -5 -11 13 -10 14 5 9 10 -4 16 -3 13 2 -4 5 13 9 37 9 24 1 41 -3 39
-7 -3 -4 2 -8 11 -8 10 0 13 5 9 12 -4 7 -3 8 4 4 6 -4 20 -2 31 3 16 9 19 8
16 -7 -1 -11 -10 -16 -26 -15 -13 1 -18 -1 -11 -3 6 -3 10 -9 8 -13 -3 -4 1
-8 9 -8 7 0 19 11 26 24 7 13 18 22 25 19 7 -3 15 -2 17 2 2 4 2 1 1 -5 -2 -7
4 -13 12 -13 8 0 12 4 9 10 -3 6 1 7 9 4 9 -3 16 -10 16 -16 0 -5 -6 -6 -12
-2 -10 5 -10 4 -1 -6 6 -7 9 -20 5 -29 -5 -14 -4 -14 11 1 20 19 22 32 5 22
-8 -4 -10 -3 -5 2 5 5 12 9 15 9 4 0 13 4 19 8 10 6 11 2 3 -18 -13 -35 -13
-38 4 -23 8 7 11 18 8 23 -3 6 1 4 10 -2 8 -7 18 -10 21 -6 4 3 -1 13 -11 21
-15 12 -14 12 8 0 14 -8 36 -14 48 -13 17 1 26 -5 33 -21 6 -17 13 -22 26 -17
13 4 15 3 8 -5 -13 -14 -68 -24 -59 -11 3 5 0 8 -8 7 -7 -2 -12 3 -10 10 1 8
-2 11 -9 6 -7 -4 -9 -3 -6 2 3 6 -5 10 -19 10 -13 0 -24 -4 -24 -9 0 -5 6 -7
14 -4 12 5 53 -31 48 -43 -3 -7 21 -7 33 0 6 3 16 5 23 4 6 -1 18 -2 26 -3 8
0 17 -8 20 -17 5 -13 4 -14 -7 -6 -8 7 -17 9 -20 5 -13 -13 -7 -20 18 -20 14
0 25 3 25 7 0 4 12 8 26 8 17 0 22 -3 13 -9 -7 -4 -17 -5 -21 -3 -4 3 -5 -2
-2 -11 5 -11 10 -13 19 -5 6 5 15 7 18 3 4 -3 7 1 7 10 0 9 4 19 10 22 15 10
-1 -28 -18 -42 -9 -7 -12 -16 -8 -20 4 -4 10 -2 15 5 10 16 59 11 74 -7 8 -10
9 -13 1 -8 -7 4 -14 0 -17 -8 -5 -11 -1 -12 18 -5 16 6 27 6 31 -1 4 -8 9 -7
14 2 10 16 50 23 50 8 0 -5 5 -7 12 -3 7 4 8 3 4 -5 -4 -6 -12 -9 -17 -6 -5 4
-9 2 -9 -2 0 -5 9 -14 20 -21 12 -7 20 -8 20 -2 0 5 -5 10 -10 10 -6 0 -3 11
6 25 12 19 20 23 29 15 13 -11 13 -8 6 29 -1 2 -7 -2 -14 -8 -8 -6 -18 -7 -22
-3 -5 4 -5 1 -1 -5 4 -7 3 -13 -2 -13 -6 0 -13 7 -16 16 -3 8 -2 12 4 9 6 -3
10 0 10 7 0 9 3 9 10 -2 5 -8 10 -13 11 -10 0 3 2 13 4 23 3 15 -7 22 -28 18
-5 -1 -6 3 -2 9 4 7 12 7 26 0 14 -8 20 -8 23 2 13 41 14 43 15 25 1 -10 5
-16 10 -12 5 3 13 0 17 -6 4 -7 3 -9 -4 -5 -6 3 -14 -3 -17 -15 -5 -15 -9 -18
-15 -9 -5 8 -10 8 -14 2 -12 -19 25 -21 43 -3 11 11 23 16 27 13 5 -4 3 0 -2
8 -11 14 -15 50 -7 50 3 0 14 -5 26 -11 20 -9 20 -9 5 4 -10 8 -15 17 -11 20
3 4 12 2 19 -4 9 -7 12 -6 10 7 -2 10 -10 18 -19 20 -10 1 -14 -2 -11 -8 5 -7
2 -8 -6 -3 -9 6 -11 4 -5 -6 8 -12 6 -12 -8 0 -18 14 -22 22 -9 19 4 -1 18 4
31 11 20 11 25 11 32 0 5 -8 9 -10 9 -6 0 5 -8 20 -19 33 -16 20 -21 22 -30
10 -10 -11 -8 -15 6 -18 16 -3 15 -5 -3 -10 -25 -6 -27 10 -5 36 11 13 11 16
1 16 -8 0 -10 3 -7 6 4 4 13 1 21 -5 10 -9 16 -9 21 -1 5 8 12 7 23 -2 15 -11
15 -11 5 3 -7 9 -10 19 -6 22 3 4 1 7 -4 7 -6 0 -13 -5 -15 -12 -3 -8 -12 -6
-29 6 -17 13 -18 17 -5 12 13 -5 17 -2 12 9 -3 8 -1 15 3 15 5 0 12 -6 14 -12
4 -10 6 -10 6 0 1 7 -10 17 -23 22 -13 5 -29 16 -34 26 -6 11 -11 13 -16 5 -4
-6 -2 -11 4 -11 6 0 8 -5 4 -11 -10 -17 -25 12 -18 36 4 16 3 17 -5 5 -10 -13
-11 -13 -12 0 -1 8 -1 18 -1 21 1 3 -5 6 -13 6 -8 0 -11 -5 -8 -10 3 -5 0 -7
-8 -5 -8 3 -13 14 -11 24 2 17 1 17 -10 3 -7 -9 -20 -14 -28 -12 -10 3 -9 -1
4 -11 10 -8 23 -13 27 -10 5 3 9 0 9 -7 0 -9 3 -9 14 0 11 9 15 8 20 -5 8 -21
8 -24 -5 -24 -5 0 -8 4 -5 9 8 13 -48 10 -57 -3 -6 -7 -7 -5 -4 6 7 20 -11 35
-40 32 -12 0 -20 2 -18 7 3 4 2 9 -2 12 -5 2 -3 2 4 1 6 -2 11 6 10 17 -1 20
-17 27 -17 7 0 -6 -7 -3 -16 8 -12 15 -14 15 -11 2 6 -17 -16 -19 -30 -3 -4 4
-3 5 3 2 18 -10 24 19 9 39 -7 10 -10 25 -8 34 5 13 4 13 -8 0 -8 -9 -21 -21
-30 -28 -13 -9 -15 -7 -13 18 1 17 -2 32 -6 35 -5 3 -7 -6 -4 -21 3 -17 1 -23
-6 -19 -6 4 -16 3 -23 -2 -14 -11 -27 -11 -44 0 -8 5 -13 4 -13 -2 0 -6 -5
-11 -11 -11 -5 0 -8 4 -5 8 2 4 1 14 -4 22 -5 8 -4 23 1 34 10 21 10 21 -6 1
-9 -11 -18 -18 -20 -15 -2 3 -7 1 -12 -4 -4 -5 -3 -6 4 -2 6 3 15 1 19 -5 4
-8 3 -9 -4 -5 -7 4 -12 1 -12 -9 0 -10 5 -13 12 -9 7 4 8 3 4 -5 -10 -15 -26
-4 -26 17 0 15 -2 15 -11 2 -9 -13 -10 -12 -5 3 3 9 9 25 13 34 5 14 3 13 -14
-3 -11 -10 -18 -22 -16 -26 4 -8 -22 -1 -42 11 -5 3 -17 6 -26 6 -9 0 -23 6
-32 13 -10 9 -17 10 -22 2 -4 -6 -14 -2 -25 12 -11 13 -19 18 -20 12 0 -5 5
-15 12 -22 9 -9 9 -15 1 -23 -8 -8 -13 -7 -18 2 -6 8 -4 10 5 4 8 -5 11 -3 8
5 -2 7 -12 14 -22 16 -10 1 -20 5 -23 8 -3 3 -14 1 -24 -5 -14 -7 -17 -6 -13
4 3 8 -2 14 -11 14 -10 0 -14 -6 -10 -16 4 -13 2 -13 -8 1 -15 19 -29 14 -21
-6 2 -6 -5 -12 -16 -13 -11 -1 -20 3 -20 8 0 6 5 7 10 4 6 -3 10 -2 10 3 0 19
-14 21 -34 5 -20 -17 -20 -17 -7 0 7 9 9 17 3 17 -11 0 -29 -20 -32 -35 -1 -5
-3 -12 -5 -13 -6 -7 1 23 8 36 5 6 4 12 -1 12 -13 0 -33 -25 -27 -33 3 -4 2
-5 -2 -2 -3 3 -13 -3 -21 -13 -8 -10 -7 -5 3 11 16 28 16 29 -4 22 -23 -7 -26
1 -11 25 5 8 10 10 10 4 0 -13 58 -13 77 -1 6 4 13 1 16 -5 2 -7 4 3 4 22 0
19 -2 27 -4 17 -4 -17 -6 -17 -29 -2 -13 8 -24 12 -24 7 0 -5 10 -13 22 -19
12 -5 17 -12 12 -16 -13 -7 -56 21 -50 32 3 4 -1 8 -9 8 -11 0 -12 -4 -4 -13z
m-31 -34 c-8 -16 -15 -19 -24 -11 -7 6 -16 8 -19 4 -4 -3 -7 -3 -7 0 0 7 53
37 58 32 2 -2 -2 -13 -8 -25z m54 12 c3 -5 -1 -9 -9 -9 -8 0 -12 4 -9 9 3 4 7
8 9 8 2 0 6 -4 9 -8z m182 -67 c-1 -8 -6 -18 -11 -22 -4 -4 -5 -2 -1 5 4 7 2
12 -6 12 -9 0 -9 3 2 10 19 12 19 13 16 -5z m-260 -7 c5 -7 3 -8 -5 -4 -7 5
-19 0 -27 -10 -14 -18 -14 -18 -4 4 12 24 25 28 36 10z m129 2 c-3 -5 -12 -10
-18 -10 -7 0 -6 4 3 10 19 12 23 12 15 0z m92 4 c-3 -3 -12 -4 -19 -1 -8 3 -5
6 6 6 11 1 17 -2 13 -5z m141 -6 c-2 -7 5 -12 16 -11 13 1 15 -2 7 -10 -12
-12 -44 9 -35 24 8 13 14 11 12 -3z m-575 -36 c-5 -12 -7 -12 -15 2 -11 20 1
44 12 25 5 -6 6 -19 3 -27z m634 13 c0 -8 -4 -12 -9 -9 -4 3 -8 9 -8 15 0 5 4
9 8 9 5 0 9 -7 9 -15z m-553 -14 c4 -5 -3 -7 -14 -4 -23 6 -26 13 -6 13 8 0
17 -4 20 -9z m842 -24 c1 -7 -8 -14 -20 -15 -16 -1 -18 1 -6 8 8 5 11 10 7 10
-5 0 -5 5 -2 11 8 12 18 5 21 -14z m-66 9 c0 -3 -4 -8 -10 -11 -5 -3 -10 -1
-10 4 0 6 5 11 10 11 6 0 10 -2 10 -4z m-1047 -61 c-3 -9 -8 -14 -10 -11 -3 3
-2 9 2 15 9 16 15 13 8 -4z m1282 -85 c3 -5 1 -10 -4 -10 -6 0 -11 5 -11 10 0
6 2 10 4 10 3 0 8 -4 11 -10z m85 -20 c0 -5 -4 -10 -10 -10 -5 0 -10 5 -10 10
0 6 5 10 10 10 6 0 10 -4 10 -10z m-1590 -25 c8 -9 8 -15 0 -20 -6 -4 -9 -1
-8 7 2 8 -5 12 -19 10 -12 -2 -24 1 -27 6 -9 15 42 11 54 -3z m605 -75 c-3 -5
-1 -10 4 -10 6 0 11 -5 11 -11 0 -5 -4 -8 -9 -4 -5 3 -12 1 -16 -5 -4 -6 -10
-8 -15 -5 -5 3 -13 -2 -18 -11 -9 -16 -11 -16 -33 0 -19 13 -20 16 -6 16 10 0
16 4 13 8 -7 12 26 12 41 0 7 -5 14 -5 18 2 3 5 0 10 -7 10 -9 0 -9 3 2 10 19
12 23 12 15 0z m-128 -73 c10 -11 13 -18 7 -14 -6 4 -27 -9 -47 -29 -22 -23
-37 -31 -42 -24 -5 8 -10 8 -20 0 -9 -8 -14 -7 -18 4 -4 9 -1 18 5 22 7 4 8 3
4 -4 -5 -8 0 -11 15 -9 13 2 26 12 30 23 4 10 8 14 8 7 1 -7 8 -10 17 -6 11 4
12 8 4 13 -8 5 -6 9 6 14 9 3 14 9 11 12 -3 3 -14 1 -24 -5 -14 -7 -20 -7 -20
2 0 20 45 16 64 -6z m1089 0 c1 -9 -2 -17 -8 -17 -6 0 -7 7 -4 16 5 12 2 15
-9 10 -10 -3 -13 -2 -10 5 9 14 28 6 31 -14z m-333 -34 c-3 -7 -6 -13 -8 -13
-2 0 -5 6 -8 13 -3 8 1 14 8 14 7 0 11 -6 8 -14z m-1423 -64 c0 -5 -4 -7 -10
-4 -5 3 -10 -1 -10 -9 0 -9 -5 -16 -11 -16 -5 0 -8 -4 -5 -9 8 -13 -4 -42 -15
-35 -5 3 -10 -5 -10 -18 -1 -17 -3 -18 -6 -5 -2 9 -9 14 -15 11 -6 -4 -6 2 1
14 7 13 17 19 27 15 12 -4 14 1 9 28 -3 21 -2 29 3 21 8 -11 10 -11 15 2 7 18
27 22 27 5z m454 -29 c-6 -6 -10 -3 -10 10 0 13 4 16 10 10 7 -7 7 -13 0 -20z
m1142 18 c3 -4 -1 -5 -10 -4 -8 1 -18 5 -22 8 -3 4 1 5 10 4 8 -1 18 -5 22 -8z
m-1596 -32 c0 -3 -4 -8 -10 -11 -5 -3 -10 -1 -10 4 0 6 5 11 10 11 6 0 10 -2
10 -4z m-100 -86 c0 -5 -5 -10 -11 -10 -5 0 -7 5 -4 10 3 6 8 10 11 10 2 0 4
-4 4 -10z m20 -20 c0 -5 -5 -10 -11 -10 -5 0 -7 5 -4 10 3 6 8 10 11 10 2 0 4
-4 4 -10z m479 6 c-2 -2 -15 -9 -29 -16 -23 -12 -24 -12 -11 3 7 10 20 17 29
17 8 0 13 -2 11 -4z m-59 -26 c0 -5 -4 -10 -10 -10 -5 0 -10 5 -10 10 0 6 5
10 10 10 6 0 10 -4 10 -10z m-40 -114 c0 -3 -4 -8 -10 -11 -5 -3 -10 -1 -10 4
0 6 5 11 10 11 6 0 10 -2 10 -4z m17 -19 c0 -7 -6 -18 -14 -25 -16 -15 -17 -8
-3 19 12 22 17 24 17 6z m-474 -70 c3 -8 1 -20 -3 -27 -10 -16 -3 -33 11 -25
5 3 6 -1 2 -11 -5 -15 -7 -15 -15 0 -5 9 -15 13 -21 9 -7 -4 -6 0 2 10 7 9 10
17 5 17 -5 0 -2 5 6 10 13 8 12 10 -3 10 -10 0 -15 5 -12 10 9 14 22 12 28 -3z
m397 -82 c0 -8 -2 -15 -4 -15 -2 0 -6 7 -10 15 -3 8 -1 15 4 15 6 0 10 -7 10
-15z m-440 -69 c0 -3 -4 -8 -10 -11 -5 -3 -10 -1 -10 4 0 6 5 11 10 11 6 0 10
-2 10 -4z m50 0 c0 -3 -4 -8 -10 -11 -5 -3 -10 -1 -10 4 0 6 5 11 10 11 6 0
10 -2 10 -4z m-15 -50 c0 -15 -4 -21 -9 -16 -5 5 -6 16 -3 24 9 22 12 20 12
-8z m442 9 c0 -8 -4 -15 -9 -15 -10 0 -11 14 -1 23 9 10 10 9 10 -8z m-62 -25
c3 -5 1 -10 -4 -10 -6 0 -11 5 -11 10 0 6 2 10 4 10 3 0 8 -4 11 -10z m-370
-140 c-3 -5 -12 -10 -18 -10 -7 0 -6 4 3 10 19 12 23 12 15 0z m415 -40 c-8
-15 -6 -22 11 -33 12 -9 16 -18 10 -21 -5 -4 -14 2 -20 11 -8 15 -9 14 -7 -9
1 -15 8 -33 15 -42 8 -10 9 -16 1 -21 -6 -3 -7 -11 -4 -17 4 -6 -2 -6 -15 1
-21 12 -28 22 -13 20 4 -1 13 -1 21 0 16 1 5 16 -12 16 -7 0 -11 9 -9 19 2 10
-1 15 -6 12 -5 -3 -14 7 -21 22 -10 25 -10 26 4 8 8 -11 18 -16 22 -12 5 4 -2
15 -13 25 l-22 17 27 16 c32 18 45 13 31 -12z m-53 14 c-3 -3 -12 -4 -19 -1
-8 3 -5 6 6 6 11 1 17 -2 13 -5z m-367 -28 c0 -3 -4 -8 -10 -11 -5 -3 -10 -1
-10 4 0 6 5 11 10 11 6 0 10 -2 10 -4z m377 -108 c-3 -8 -6 -5 -6 6 -1 11 2
17 5 13 3 -3 4 -12 1 -19z m-380 -8 c-1 -11 -5 -20 -9 -20 -10 0 -10 4 -2 24
8 22 13 20 11 -4z m405 -17 c-6 -2 -10 -9 -7 -13 3 -5 1 -11 -4 -14 -7 -5 -8
11 -2 32 1 1 7 2 14 1 9 0 9 -2 -1 -6z m18 -47 c0 -3 -4 -8 -10 -11 -5 -3 -10
-1 -10 4 0 6 5 11 10 11 6 0 10 -2 10 -4z m-400 -46 c0 -5 -5 -10 -11 -10 -5
0 -7 5 -4 10 3 6 8 10 11 10 2 0 4 -4 4 -10z m414 -70 c-6 -6 -10 -3 -10 10 0
13 4 16 10 10 7 -7 7 -13 0 -20z m-404 5 c7 -9 8 -15 2 -15 -5 0 -12 7 -16 15
-3 8 -4 15 -2 15 2 0 9 -7 16 -15z m-10 -54 c0 -6 -4 -12 -8 -15 -5 -3 -9 1
-9 9 0 8 4 15 9 15 4 0 8 -4 8 -9z m456 -6 c-3 -24 -12 -27 -27 -8 -8 9 -9 14
-2 10 6 -4 14 -3 18 3 9 14 14 12 11 -5z m-430 -17 c4 -7 4 -10 -1 -6 -4 4
-14 0 -22 -10 -13 -15 -13 -15 -3 6 12 25 16 27 26 10z m-15 -47 c-7 -5 -11
-13 -7 -19 3 -6 3 -13 -2 -16 -12 -7 -11 26 1 42 5 7 12 10 16 7 3 -3 -1 -10
-8 -14z m444 -51 c3 -5 1 -10 -4 -10 -6 0 -11 5 -11 10 0 6 2 10 4 10 3 0 8
-4 11 -10z m-388 -92 c-3 -8 -6 -5 -6 6 -1 11 2 17 5 13 3 -3 4 -12 1 -19z
m491 -16 c-11 -13 -11 -15 3 -10 9 3 22 2 30 -3 9 -5 4 -7 -16 -5 -19 1 -29 7
-27 15 2 9 -3 11 -15 7 -16 -5 -16 -5 1 9 24 18 42 9 24 -13z m-514 6 c-5 -8
5 -11 38 -11 10 0 15 -3 13 -7 -3 -5 -2 -10 2 -13 5 -2 2 -2 -5 0 -8 1 -12 -3
-9 -9 2 -7 11 -12 19 -10 9 1 20 -4 27 -12 11 -13 -1 -15 -41 -7 -4 0 -10 10
-13 21 -4 11 -10 18 -14 15 -5 -2 -18 6 -29 18 -20 22 -20 23 -2 23 10 0 16
-4 14 -8z m1719 -54 c-3 -8 -9 -14 -15 -14 -5 0 -6 5 -2 12 5 7 2 9 -8 5 -11
-4 -15 -1 -13 11 2 9 4 20 4 24 1 4 10 0 20 -9 11 -9 17 -22 14 -29z m-41 -21
c-6 -2 -9 -10 -6 -15 4 -7 2 -8 -5 -4 -13 9 -5 26 12 25 9 0 8 -2 -1 -6z m65
-9 c-3 -3 -12 -4 -19 -1 -8 3 -5 6 6 6 11 1 17 -2 13 -5z m21 -24 c-7 -10 -14
-18 -15 -16 -6 6 9 36 18 36 5 0 4 -9 -3 -20z m-1168 -30 c0 -5 -2 -10 -4 -10
-3 0 -8 5 -11 10 -3 6 -1 10 4 10 6 0 11 -4 11 -10z m1030 5 c0 -2 -6 -8 -13
-14 -10 -8 -14 -7 -14 2 0 8 6 14 14 14 7 0 13 -1 13 -2z m229 -27 c7 -11 10
-23 7 -26 -3 -3 -6 0 -6 6 0 7 -5 12 -11 12 -5 0 -7 -4 -4 -10 3 -5 1 -10 -5
-10 -7 0 -9 8 -4 22 6 20 5 21 -9 10 -10 -9 -14 -25 -12 -44 2 -17 1 -27 -2
-24 -11 10 -12 55 -2 62 5 3 7 9 5 13 -3 4 3 7 13 8 9 1 23 -8 30 -19z m-1225
4 c3 -5 -1 -9 -9 -9 -8 0 -12 4 -9 9 3 4 7 8 9 8 2 0 6 -4 9 -8z m86 -17 c0
-8 -4 -15 -8 -15 -5 0 -9 7 -9 15 0 8 4 15 9 15 4 0 8 -7 8 -15z m-585 -5 c19
-8 19 -9 -2 -9 -12 -1 -25 4 -28 9 -7 12 2 12 30 0z m675 -41 c-6 -10 -16 -19
-23 -18 -9 0 -9 2 1 6 6 2 12 14 12 24 0 11 5 17 10 14 7 -4 7 -13 0 -26z
m572 -4 c3 -13 2 -22 -3 -20 -4 3 -14 2 -23 -1 -12 -5 -13 -11 -5 -27 10 -21
9 -21 -5 -3 -8 10 -19 15 -25 12 -5 -4 -12 -2 -16 4 -8 13 -25 13 -25 1 0 -5
9 -13 21 -16 11 -4 18 -9 16 -12 -3 -2 -18 2 -35 11 -21 11 -32 12 -40 4 -8
-8 -13 -7 -17 5 -4 9 -15 14 -26 12 -12 -2 -17 0 -13 6 3 6 17 8 29 5 13 -3
27 -1 30 4 5 8 11 8 19 0 10 -7 20 -4 40 11 17 14 26 16 26 8 0 -8 7 -3 16 9
18 26 30 22 36 -13z m498 -31 c0 -2 -9 0 -20 6 -11 6 -20 13 -20 16 0 2 9 0
20 -6 11 -6 20 -13 20 -16z m-917 -3 c8 -6 16 -9 18 -6 3 2 6 -6 6 -18 2 -16
0 -18 -7 -7 -10 16 -60 25 -60 10 0 -5 -5 -10 -11 -10 -8 0 -8 4 0 13 8 10 8
16 0 24 -16 16 36 10 54 -6z m-788 -1 c-3 -5 -2 -10 4 -10 5 0 12 6 15 13 3 6
3 2 0 -11 -3 -12 -2 -22 3 -21 21 4 34 -2 27 -12 -4 -8 -9 -7 -15 2 -5 8 -9
10 -9 5 0 -5 -9 -1 -20 9 -17 15 -19 35 -4 35 3 0 2 -4 -1 -10z m1708 -25
c-10 -13 -22 -25 -27 -25 -9 0 11 29 29 42 17 13 17 9 -2 -17z m-853 5 c12 -7
10 -9 -8 -7 -12 0 -22 5 -22 9 0 11 12 10 30 -2z m190 0 c0 -5 -4 -10 -10 -10
-5 0 -10 5 -10 10 0 6 5 10 10 10 6 0 10 -4 10 -10z m35 -10 c-3 -5 -12 -10
-18 -10 -7 0 -6 4 3 10 19 12 23 12 15 0z m-185 -4 c0 -3 -4 -8 -10 -11 -5 -3
-10 -1 -10 4 0 6 5 11 10 11 6 0 10 -2 10 -4z m-775 -35 c3 -5 2 -12 -3 -15
-5 -3 -9 1 -9 9 0 17 3 19 12 6z m39 -33 c-3 -4 -11 -5 -19 -1 -21 7 -19 12 4
10 11 0 18 -5 15 -9z m43 -69 c1 -13 -4 -16 -19 -14 -12 3 -26 10 -32 16 -7 8
-3 7 13 -1 20 -10 23 -10 18 2 -3 8 0 15 7 15 7 0 13 -8 13 -18z m1317 -35 c3
-8 2 -12 -4 -9 -6 3 -10 2 -10 -2 0 -5 -9 -14 -19 -20 -17 -11 -19 -10 -16 7
2 11 -1 20 -7 20 -6 0 -8 3 -5 6 4 4 13 1 22 -6 12 -10 16 -9 21 4 8 20 10 20
18 0z m-1147 -46 c-3 -8 -6 -5 -6 6 -1 11 2 17 5 13 3 -3 4 -12 1 -19z m1013
-8 c0 -5 -5 -10 -11 -10 -5 0 -7 5 -4 10 3 6 8 10 11 10 2 0 4 -4 4 -10z
m-977 -25 c-3 -9 -8 -14 -10 -11 -3 3 -2 9 2 15 9 16 15 13 8 -4z m1010 -28
c-3 -4 -11 -3 -18 3 -10 8 -16 7 -24 -7 -7 -12 -10 -14 -11 -4 0 11 -5 10 -20
-4 -18 -17 -20 -17 -14 -2 3 9 10 17 16 17 5 0 6 6 2 13 -6 9 -4 9 8 -1 14
-11 18 -10 28 8 11 21 12 21 25 3 7 -10 11 -21 8 -26z m-984 7 c-8 -9 -8 -14
-1 -14 6 0 16 8 21 18 14 23 14 6 0 -19 -8 -16 -13 -18 -24 -9 -8 7 -19 9 -24
6 -5 -4 -12 -2 -15 3 -4 5 4 11 16 13 13 2 22 9 20 16 -1 8 2 11 8 7 8 -5 7
-11 -1 -21z m157 -27 c8 3 14 -1 14 -8 0 -7 -3 -9 -7 -6 -3 4 -12 2 -20 -5
-10 -8 -17 -8 -25 0 -9 9 -9 12 1 12 7 0 9 5 5 13 -5 9 -4 9 6 0 7 -6 19 -9
26 -6z m474 -1 c0 -3 -4 -8 -10 -11 -5 -3 -10 -1 -10 4 0 6 5 11 10 11 6 0 10
-2 10 -4z m-34 -21 c-3 -8 0 -15 6 -15 7 0 6 -5 -2 -15 -7 -8 -17 -12 -22 -9
-6 4 -6 9 2 14 6 4 11 10 11 14 -2 16 0 26 5 26 3 0 4 -7 0 -15z"/>
<path d="M1585 2539 c-11 -17 1 -21 15 -4 8 9 8 15 2 15 -6 0 -14 -5 -17 -11z"/>
<path d="M1094 1635 c-4 -8 -10 -12 -15 -9 -16 10 -9 -3 9 -17 9 -7 14 -10 10
-5 -4 5 -3 17 3 27 5 11 7 19 4 19 -3 0 -8 -7 -11 -15z"/>
<path d="M2096 824 c-3 -8 -10 -12 -16 -9 -13 8 -32 -4 -25 -16 7 -11 65 17
65 31 0 16 -17 12 -24 -6z"/>
<path d="M1989 793 c-12 -16 -12 -17 2 -6 9 7 20 9 24 5 5 -4 5 -1 1 6 -9 16
-11 15 -27 -5z"/>
<path d="M1829 2985 c-1 -8 -2 -21 -3 -27 -3 -20 5 -30 17 -20 14 10 47 10 65
-1 6 -5 12 -6 12 -2 0 3 8 1 18 -4 14 -8 21 -3 38 28 14 27 17 38 8 38 -7 0
-11 -4 -8 -9 3 -4 -5 -9 -18 -9 -16 -1 -18 -3 -6 -6 10 -2 15 -10 11 -18 -4
-12 -7 -12 -20 0 -8 9 -19 13 -24 10 -5 -4 -9 -2 -9 4 0 5 6 12 13 14 9 4 9 6
0 6 -7 1 -18 -8 -25 -19 -12 -18 -13 -18 -32 -2 -11 9 -16 11 -12 5 4 -8 1
-13 -9 -13 -13 0 -14 4 -5 20 7 14 7 20 0 20 -5 0 -11 -7 -11 -15z m107 -37
c3 -4 -1 -5 -10 -4 -8 1 -18 5 -22 8 -3 4 1 5 10 4 8 -1 18 -5 22 -8z"/>
<path d="M1880 2990 c-9 -6 -10 -10 -3 -10 6 0 15 5 18 10 8 12 4 12 -15 0z"/>
<path d="M2060 2996 c0 -2 8 -10 18 -17 15 -13 16 -12 3 4 -13 16 -21 21 -21
13z"/>
<path d="M1590 2970 c0 -5 5 -10 10 -10 6 0 10 5 10 10 0 6 -4 10 -10 10 -5 0
-10 -4 -10 -10z"/>
<path d="M1990 2959 c-7 -12 -5 -21 5 -29 9 -7 18 -10 22 -7 3 4 13 1 21 -5 8
-7 24 -13 36 -14 11 -1 28 -5 37 -8 10 -4 21 0 30 11 7 10 10 15 5 11 -5 -4
-22 0 -39 9 -22 11 -32 12 -35 4 -2 -6 -8 -8 -13 -5 -6 3 -5 12 3 22 11 13 11
14 -1 7 -10 -6 -13 -4 -9 7 9 22 -51 19 -62 -3z m51 0 c3 -19 5 -24 14 -39 8
-13 7 -13 -9 0 -10 8 -25 15 -33 16 -19 3 -30 14 -14 14 7 0 10 4 7 8 -2 4 4
9 15 9 10 1 20 -2 20 -8z m85 -56 c-2 -3 -13 0 -24 6 -11 6 -23 7 -27 3 -5 -4
-5 -2 -1 5 5 9 13 10 31 1 14 -6 23 -13 21 -15z"/>
<path d="M2016 2952 c-3 -5 1 -9 9 -9 8 0 12 4 9 9 -3 4 -7 8 -9 8 -2 0 -6 -4
-9 -8z"/>
<path d="M1560 2940 c7 -14 7 -20 0 -20 -5 0 -10 5 -10 10 0 6 -5 10 -11 10
-8 0 -8 -4 -1 -12 6 -7 11 -17 12 -23 3 -18 9 -18 16 -2 5 13 9 14 25 4 16
-10 21 -9 29 3 10 17 -1 32 -26 36 -9 1 -13 -1 -9 -4 4 -4 11 -8 16 -8 22 -3
23 -5 9 -14 -17 -10 -40 5 -40 26 0 8 -5 14 -10 14 -7 0 -7 -6 0 -20z"/>
<path d="M2100 2956 c0 -2 8 -10 18 -17 15 -13 16 -12 3 4 -13 16 -21 21 -21
13z"/>
<path d="M1297 2893 c-4 -3 -2 -12 4 -20 14 -17 -2 -17 -20 0 -11 10 -13 10
-7 0 7 -12 -6 -18 -29 -13 -5 1 -7 -2 -3 -6 4 -4 3 -13 -3 -21 -9 -10 -15 -11
-26 -1 -11 9 -18 7 -31 -8 -9 -10 -10 -13 -2 -6 19 17 35 15 21 -2 -9 -11 -9
-15 1 -20 7 -3 3 -3 -9 0 -22 5 -31 -5 -17 -19 11 -11 44 12 38 27 -3 9 2 13
18 12 14 -1 22 4 20 12 -1 7 3 12 10 10 7 -1 23 3 36 10 12 7 27 10 32 7 5 -3
11 -1 15 5 4 6 10 8 15 5 5 -3 8 4 7 15 -1 17 -4 18 -12 8 -13 -17 -51 -17
-47 0 2 13 -1 15 -11 5z"/>
<path d="M2223 2883 c0 -12 4 -21 7 -21 3 0 7 -1 10 -2 22 -8 41 -6 51 6 7 8
9 17 5 21 -3 3 -6 1 -6 -5 0 -14 -52 -5 -62 11 -4 7 -6 3 -5 -10z"/>
<path d="M2410 2886 c0 -2 8 -10 18 -17 15 -13 16 -12 3 4 -13 16 -21 21 -21
13z"/>
<path d="M2390 2861 c0 -5 5 -13 10 -16 6 -3 10 -2 10 4 0 5 -4 13 -10 16 -5
3 -10 2 -10 -4z"/>
<path d="M1215 2850 c3 -5 8 -10 11 -10 2 0 4 5 4 10 0 6 -5 10 -11 10 -5 0
-7 -4 -4 -10z"/>
<path d="M2421 2837 c-1 -12 -6 -16 -13 -11 -10 5 -10 3 0 -7 7 -8 20 -14 30
-14 12 0 17 -8 16 -27 0 -33 1 -34 33 -8 14 11 21 20 15 20 -6 0 -14 -5 -17
-10 -4 -6 -11 -7 -17 -4 -6 4 -1 12 13 21 l24 14 -24 -7 c-16 -4 -21 -3 -17 5
4 6 4 11 -1 10 -20 -4 -32 2 -36 19 -4 16 -5 16 -6 -1z"/>
<path d="M1137 2789 c7 -7 15 -10 18 -7 3 3 -2 9 -12 12 -14 6 -15 5 -6 -5z"/>
<path d="M1137 2753 c3 -7 6 -13 8 -13 1 0 7 6 13 13 8 10 6 13 -7 13 -11 0
-17 -6 -14 -13z"/>
<path d="M1045 2730 c-16 -7 -17 -9 -3 -9 9 -1 20 4 23 9 7 11 7 11 -20 0z"/>
<path d="M2616 2728 c3 -5 10 -6 15 -3 13 9 11 12 -6 12 -8 0 -12 -4 -9 -9z"/>
<path d="M950 2630 c0 -5 5 -10 10 -10 6 0 10 5 10 10 0 6 -4 10 -10 10 -5 0
-10 -4 -10 -10z"/>
<path d="M937 2602 c5 -4 12 -14 15 -22 4 -12 7 -11 15 5 10 17 8 20 -15 22
-14 0 -21 -2 -15 -5z"/>
<path d="M2670 2591 c0 -10 19 -25 25 -20 1 2 -3 10 -11 17 -8 7 -14 8 -14 3z"/>
<path d="M1705 2550 c-3 -5 1 -10 9 -10 9 0 16 -5 16 -12 0 -6 2 -9 5 -6 7 7
-5 38 -15 38 -5 0 -12 -4 -15 -10z"/>
<path d="M1805 2549 c-18 -8 -17 -8 5 -6 16 1 24 -3 23 -10 -2 -7 2 -13 7 -13
6 0 10 5 10 10 0 6 1 13 3 17 3 10 -26 11 -48 2z"/>
<path d="M1956 2544 c-8 -22 -4 -25 11 -9 7 8 9 16 4 19 -5 3 -12 -1 -15 -10z"/>
<path d="M1870 2530 c0 -5 5 -10 11 -10 5 0 7 5 4 10 -3 6 -8 10 -11 10 -2 0
-4 -4 -4 -10z"/>
<path d="M1996 2528 c5 -7 2 -9 -8 -6 -8 4 -15 0 -15 -7 0 -10 5 -11 19 -4 16
9 17 29 2 29 -3 0 -2 -5 2 -12z"/>
<path d="M2150 2514 c6 -6 6 -15 2 -20 -4 -5 -3 -6 2 -2 5 4 16 2 24 -5 13
-10 15 -9 9 6 -4 10 -7 22 -7 26 0 4 -9 7 -19 7 -14 0 -17 -4 -11 -12z"/>
<path d="M836 2505 c-9 -26 -7 -32 5 -12 6 10 9 21 6 23 -2 3 -7 -2 -11 -11z"/>
<path d="M1542 2500 c7 -11 16 -20 20 -20 15 0 8 15 -12 28 -19 12 -20 11 -8
-8z"/>
<path d="M2630 2470 c0 -5 5 -10 11 -10 5 0 7 5 4 10 -3 6 -8 10 -11 10 -2 0
-4 -4 -4 -10z"/>
<path d="M830 2460 c0 -5 5 -10 11 -10 5 0 7 5 4 10 -3 6 -8 10 -11 10 -2 0
-4 -4 -4 -10z"/>
<path d="M2115 2461 c-3 -5 -2 -12 3 -15 5 -3 9 1 9 9 0 17 -3 19 -12 6z"/>
<path d="M2194 2423 c2 -18 5 -35 8 -38 3 -3 4 5 4 17 -1 13 1 30 5 39 5 10 3
16 -5 16 -9 0 -13 -11 -12 -34z"/>
<path d="M773 2425 c0 -8 4 -12 9 -9 5 3 6 10 3 15 -9 13 -12 11 -12 -6z"/>
<path d="M1490 2409 c0 -5 5 -7 10 -4 6 3 10 8 10 11 0 2 -4 4 -10 4 -5 0 -10
-5 -10 -11z"/>
<path d="M2236 2397 c3 -10 9 -15 12 -12 3 3 0 11 -7 18 -10 9 -11 8 -5 -6z"/>
<path d="M2633 2395 c0 -8 4 -12 9 -9 5 3 6 10 3 15 -9 13 -12 11 -12 -6z"/>
<path d="M2580 2389 c0 -5 5 -7 10 -4 6 3 10 8 10 11 0 2 -4 4 -10 4 -5 0 -10
-5 -10 -11z"/>
<path d="M2339 2374 c-8 -10 -8 -14 0 -14 6 0 11 5 11 10 0 6 5 10 10 10 7 0
7 -6 0 -19 -7 -15 -7 -22 2 -28 17 -10 42 -14 33 -5 -4 4 -11 8 -16 8 -5 1
-12 2 -15 3 -4 0 0 11 9 24 14 21 13 23 -3 24 -10 1 -24 -5 -31 -13z"/>
<path d="M2452 2351 c-10 -14 -12 -14 -21 -1 -8 11 -11 12 -11 2 0 -7 -4 -10
-10 -7 -6 3 -7 -1 -4 -9 3 -9 10 -16 14 -16 5 0 7 -8 5 -18 -2 -11 3 -19 11
-19 10 0 11 4 3 14 -13 14 -9 16 15 7 9 -3 14 -10 11 -14 -3 -5 5 -5 17 -2 19
5 20 7 6 10 -10 2 -18 8 -18 13 0 6 10 8 23 4 l22 -6 -22 13 c-16 9 -19 17
-13 29 6 11 5 16 -4 16 -7 0 -18 -7 -24 -16z m13 -18 c-3 -19 -22 -19 -40 -2
-7 7 -4 8 6 4 10 -4 20 -2 24 4 9 16 14 13 10 -6z"/>
<path d="M2544 2358 c3 -15 26 -23 26 -8 0 6 -4 9 -9 6 -5 -4 -12 -1 -14 4 -3
6 -4 5 -3 -2z"/>
<path d="M1312 2345 c5 -5 -4 -24 -18 -42 -14 -19 -24 -37 -21 -40 3 -2 10 5
17 16 6 12 15 19 20 16 6 -4 7 1 3 11 -4 10 -2 15 3 11 6 -3 15 -2 22 2 7 4 4
11 -11 20 -12 8 -19 10 -15 6z"/>
<path d="M2395 2301 c-3 -5 -2 -12 3 -15 5 -3 9 1 9 9 0 17 -3 19 -12 6z"/>
<path d="M676 2212 c-2 -4 2 -18 11 -32 9 -16 12 -18 7 -5 -3 11 -7 26 -7 33
0 14 -4 15 -11 4z"/>
<path d="M1170 2193 c0 -17 14 -23 29 -14 9 6 10 11 2 15 -6 4 -11 1 -11 -6 0
-9 -3 -9 -10 2 -6 9 -10 10 -10 3z"/>
<path d="M666 2152 c-3 -4 4 -9 15 -9 23 -2 25 3 4 10 -8 4 -16 3 -19 -1z"/>
<path d="M673 2073 c-10 -10 -14 -15 -8 -11 7 4 14 5 17 2 3 -2 8 2 11 11 8
19 4 19 -20 -2z"/>
<path d="M1150 2030 c0 -5 5 -10 11 -10 5 0 7 5 4 10 -3 6 -8 10 -11 10 -2 0
-4 -4 -4 -10z"/>
<path d="M1146 2002 c-3 -5 1 -9 9 -9 8 0 15 4 15 9 0 4 -4 8 -9 8 -6 0 -12
-4 -15 -8z"/>
<path d="M1145 1970 c-4 -6 -11 -7 -17 -4 -7 5 -8 2 -4 -5 5 -7 11 -10 14 -7
3 3 10 2 16 -4 8 -6 12 -3 13 11 2 20 -12 26 -22 9z"/>
<path d="M600 1938 c-10 -21 -10 -21 3 -6 8 10 18 14 22 10 5 -4 5 -1 1 6 -10
17 -14 15 -26 -10z"/>
<path d="M1139 1867 c7 -7 14 -8 21 -1 6 6 2 10 -12 11 -16 2 -18 -1 -9 -10z"/>
<path d="M594 1816 c0 -17 4 -22 16 -18 8 3 12 2 8 -3 -4 -4 -3 -14 3 -22 8
-9 8 -13 1 -13 -6 0 -14 5 -17 10 -3 6 -12 10 -18 9 -9 0 -8 -2 1 -6 7 -2 17
-13 22 -24 8 -15 7 -17 -5 -13 -18 7 -20 -7 -3 -24 7 -7 8 -12 2 -12 -5 0 -15
5 -20 10 -7 7 -11 6 -11 -5 0 -8 3 -13 5 -10 3 3 12 -4 19 -15 23 -33 41 -7
20 28 -5 7 -3 12 3 12 7 0 10 7 7 14 -4 10 -1 13 8 9 8 -3 12 -10 8 -16 -3 -6
-1 -7 6 -3 9 6 9 13 -3 31 -11 17 -12 25 -3 34 8 8 7 11 -5 11 -9 0 -20 9 -23
20 -9 27 -21 25 -21 -4z m23 -131 c0 -8 -4 -12 -9 -9 -5 3 -6 10 -3 15 9 13
12 11 12 -6z"/>
<path d="M1070 1836 c0 -2 7 -9 15 -16 13 -11 14 -10 9 4 -5 14 -24 23 -24 12z"/>
<path d="M1160 1810 c-9 -6 -10 -10 -3 -10 6 0 15 5 18 10 8 12 4 12 -15 0z"/>
<path d="M556 1771 c-3 -5 1 -14 8 -20 10 -9 16 -9 21 -1 4 6 1 9 -7 8 -7 -2
-12 3 -10 10 2 14 -4 16 -12 3z"/>
<path d="M571 1664 c0 -11 3 -14 6 -6 3 7 2 16 -1 19 -3 4 -6 -2 -5 -13z"/>
<path d="M590 1652 c0 -7 6 -12 13 -12 8 0 7 -4 -3 -10 -11 -7 -11 -10 -2 -10
7 0 10 -5 7 -10 -4 -6 -12 -7 -18 -3 -18 11 -38 12 -31 2 3 -5 9 -7 14 -4 5 3
15 -9 24 -25 15 -30 14 -31 -7 -25 -20 5 -20 5 -4 -5 14 -9 22 -9 33 1 12 10
14 8 10 -12 -3 -13 -5 -26 -5 -29 -1 -3 -5 1 -10 8 -7 11 -9 10 -14 -3 -4 -9
-3 -13 3 -10 6 3 10 1 10 -4 0 -6 -5 -11 -12 -11 -6 0 -9 -2 -6 -5 3 -3 17 0
32 6 19 9 23 15 14 21 -9 5 -10 8 -1 8 6 0 11 9 10 20 -1 18 -10 24 -30 21
-16 -3 -19 31 -3 48 15 16 15 19 -4 36 -11 10 -20 13 -20 7z"/>
<path d="M1147 1643 c3 -7 6 -13 8 -13 2 0 5 6 8 13 3 8 -1 14 -8 14 -7 0 -11
-6 -8 -14z"/>
<path d="M570 1530 c0 -5 5 -10 11 -10 5 0 7 5 4 10 -3 6 -8 10 -11 10 -2 0
-4 -4 -4 -10z"/>
<path d="M1146 1514 c-9 -24 -2 -26 12 -4 7 11 8 20 3 20 -5 0 -12 -7 -15 -16z"/>
<path d="M616 1471 c-6 -10 24 -25 32 -16 3 3 -1 5 -9 5 -11 0 -11 2 1 10 13
8 13 10 -2 10 -9 0 -19 -4 -22 -9z"/>
<path d="M597 1449 c7 -7 15 -10 18 -7 3 3 -2 9 -12 12 -14 6 -15 5 -6 -5z"/>
<path d="M596 1392 c-3 -5 1 -9 9 -9 8 0 12 4 9 9 -3 4 -7 8 -9 8 -2 0 -6 -4
-9 -8z"/>
<path d="M660 1355 c-7 -8 -9 -15 -6 -15 4 0 2 -10 -4 -22 -10 -21 -10 -21 3
-6 8 10 17 16 20 13 4 -3 5 -2 2 2 -3 3 0 12 6 19 6 7 6 14 1 18 -6 3 -15 -1
-22 -9z"/>
<path d="M1155 1350 c-3 -5 -1 -10 4 -10 6 0 11 5 11 10 0 6 -2 10 -4 10 -3 0
-8 -4 -11 -10z"/>
<path d="M1153 1317 c0 -7 9 -14 19 -14 16 -2 16 0 4 13 -18 17 -23 18 -23 1z"/>
<path d="M656 1228 c3 -4 9 -8 15 -8 5 0 9 4 9 8 0 5 -7 9 -15 9 -8 0 -12 -4
-9 -9z"/>
<path d="M1213 1185 c0 -8 4 -12 9 -9 5 3 6 10 3 15 -9 13 -12 11 -12 -6z"/>
<path d="M1235 1137 c0 -12 -2 -29 -7 -39 -5 -11 -4 -16 7 -14 8 1 18 6 22 11
4 4 2 5 -4 1 -9 -5 -12 1 -9 24 2 17 0 32 -4 35 -4 2 -6 -6 -5 -18z"/>
<path d="M700 1089 c0 -5 5 -7 10 -4 6 3 10 8 10 11 0 2 -4 4 -10 4 -5 0 -10
-5 -10 -11z"/>
<path d="M1313 1074 c-3 -8 -2 -19 3 -24 5 -5 9 1 9 16 0 28 -3 30 -12 8z"/>
<path d="M2470 1049 c0 -5 5 -7 10 -4 6 3 10 8 10 11 0 2 -4 4 -10 4 -5 0 -10
-5 -10 -11z"/>
<path d="M686 1028 c3 -5 10 -6 15 -3 13 9 11 12 -6 12 -8 0 -12 -4 -9 -9z"/>
<path d="M760 962 c7 -13 14 -21 17 -18 9 9 44 -14 38 -24 -3 -6 1 -7 9 -4 22
8 20 11 -14 29 -16 9 -30 12 -30 8 0 -4 -7 2 -16 13 -14 18 -15 18 -4 -4z"/>
<path d="M1337 974 c-4 -7 -1 -17 7 -23 10 -9 17 -7 27 6 13 16 12 17 -3 5
-14 -11 -17 -10 -20 5 -2 12 -6 14 -11 7z"/>
<path d="M2550 969 c0 -5 5 -7 10 -4 6 3 10 8 10 11 0 2 -4 4 -10 4 -5 0 -10
-5 -10 -11z"/>
<path d="M1390 956 c0 -2 7 -7 16 -10 8 -3 12 -2 9 4 -6 10 -25 14 -25 6z"/>
<path d="M2571 944 c0 -11 3 -14 6 -6 3 7 2 16 -1 19 -3 4 -6 -2 -5 -13z"/>
<path d="M2610 930 c0 -5 5 -10 11 -10 5 0 7 5 4 10 -3 6 -8 10 -11 10 -2 0
-4 -4 -4 -10z"/>
<path d="M2115 911 c-3 -5 -2 -12 3 -15 5 -3 9 1 9 9 0 17 -3 19 -12 6z"/>
<path d="M2190 906 c7 -7 13 -7 20 0 6 6 3 10 -10 10 -13 0 -16 -4 -10 -10z"/>
<path d="M810 890 c0 -5 5 -10 11 -10 5 0 7 5 4 10 -3 6 -8 10 -11 10 -2 0 -4
-4 -4 -10z"/>
<path d="M1973 865 c0 -8 4 -12 9 -9 5 3 6 10 3 15 -9 13 -12 11 -12 -6z"/>
<path d="M2642 854 c-22 -21 -22 -22 -3 -17 11 3 22 12 26 20 8 23 3 22 -23
-3z"/>
<path d="M1895 850 c-3 -5 -1 -10 4 -10 6 0 11 5 11 10 0 6 -2 10 -4 10 -3 0
-8 -4 -11 -10z"/>
<path d="M2677 843 c-10 -9 -9 -23 1 -23 5 0 9 7 9 15 0 17 -1 18 -10 8z"/>
<path d="M1750 829 c0 -5 5 -7 10 -4 6 3 10 8 10 11 0 2 -4 4 -10 4 -5 0 -10
-5 -10 -11z"/>
<path d="M1853 825 c0 -8 4 -12 9 -9 5 3 6 10 3 15 -9 13 -12 11 -12 -6z"/>
<path d="M1790 796 c0 -2 7 -6 15 -10 8 -3 15 -1 15 4 0 6 -7 10 -15 10 -8 0
-15 -2 -15 -4z"/>
<path d="M1830 790 c0 -5 5 -11 10 -11 34 -4 44 -3 48 9 2 6 -3 12 -11 12 -9
0 -18 -6 -20 -12 -4 -10 -6 -10 -6 0 -1 14 -21 17 -21 2z"/>
<path d="M2676 783 c-4 -9 -3 -20 1 -24 4 -4 9 3 9 17 2 28 -1 31 -10 7z"/>
<path d="M891 754 c0 -11 3 -14 6 -6 3 7 2 16 -1 19 -3 4 -6 -2 -5 -13z"/>
<path d="M976 723 c-11 -12 -6 -20 22 -32 24 -10 25 -10 9 3 -13 10 -14 15 -6
18 9 3 8 6 -3 10 -9 4 -19 4 -22 1z"/>
<path d="M2677 684 c-4 -4 -17 -7 -29 -8 -16 -1 -22 -7 -20 -19 2 -9 -1 -17
-5 -16 -19 3 -33 -2 -33 -13 0 -6 3 -8 6 -5 4 3 15 2 25 -4 15 -7 17 -6 13 6
-4 8 -1 15 6 15 6 0 8 5 4 12 -5 8 -2 9 12 4 10 -4 15 -4 11 0 -4 4 1 13 11
20 9 7 14 14 11 14 -3 0 -9 -3 -12 -6z"/>
<path d="M990 636 c0 -2 7 -7 16 -10 8 -3 12 -2 9 4 -6 10 -25 14 -25 6z"/>
<path d="M1027 616 c-4 -10 -1 -13 9 -9 7 3 14 9 14 14 0 14 -17 10 -23 -5z"/>
<path d="M2650 609 c0 -5 5 -7 10 -4 6 3 10 8 10 11 0 2 -4 4 -10 4 -5 0 -10
-5 -10 -11z"/>
<path d="M1055 590 c3 -5 8 -10 11 -10 2 0 4 5 4 10 0 6 -5 10 -11 10 -5 0 -7
-4 -4 -10z"/>
<path d="M1128 578 c-19 -19 -13 -24 11 -9 7 5 12 13 10 18 -2 5 -12 1 -21 -9z"/>
<path d="M1195 520 c-3 -5 -1 -10 4 -10 6 0 11 5 11 10 0 6 -2 10 -4 10 -3 0
-8 -4 -11 -10z"/>
<path d="M1250 520 c-8 -5 -11 -13 -6 -17 5 -4 11 -3 13 4 4 10 7 10 18 0 7
-7 10 -16 7 -21 -3 -5 0 -6 7 -2 9 6 8 13 -5 27 -9 10 -18 19 -18 19 -1 0 -8
-4 -16 -10z"/>
<path d="M2410 489 c0 -5 5 -7 10 -4 6 3 10 8 10 11 0 2 -4 4 -10 4 -5 0 -10
-5 -10 -11z"/>
<path d="M1255 480 c-4 -6 -12 -7 -18 -4 -7 4 -8 3 -4 -1 13 -15 34 -14 34 1
0 17 -4 18 -12 4z"/>
<path d="M1405 451 c-3 -5 -1 -12 5 -16 6 -4 7 -11 4 -17 -4 -7 -2 -8 5 -4 8
6 9 12 2 20 -6 7 -8 16 -4 19 3 4 4 7 0 7 -3 0 -8 -4 -12 -9z"/>
<path d="M2135 450 c-3 -5 -14 -7 -25 -5 -13 3 -17 -1 -13 -12 5 -12 7 -12 14
-1 7 10 9 10 9 -2 0 -12 2 -13 9 -1 7 11 11 10 20 -5 6 -12 11 -14 11 -5 0 11
3 11 17 0 15 -13 15 -12 2 8 -16 26 -36 36 -44 23z"/>
<path d="M2318 438 c12 -16 35 -18 48 -6 3 4 -2 5 -13 4 -10 -2 -25 2 -33 8
-13 9 -13 9 -2 -6z"/>
<path d="M1540 428 c0 -4 4 -8 9 -8 6 0 12 4 15 8 3 5 -1 9 -9 9 -8 0 -15 -4
-15 -9z"/>
<path d="M2050 400 c-9 -6 -10 -10 -3 -10 6 0 15 5 18 10 8 12 4 12 -15 0z"/>
<path d="M1975 390 c-3 -4 9 -7 25 -6 17 0 30 4 30 7 0 9 -49 8 -55 -1z"/>
<path d="M1821 371 c-10 -7 -7 -9 12 -8 14 1 23 5 20 10 -6 9 -15 9 -32 -2z"/>
<path d="M1953 355 c0 -8 4 -12 9 -9 5 3 6 10 3 15 -9 13 -12 11 -12 -6z"/>
<path d="M1985 350 c-3 -6 1 -7 9 -4 18 7 21 14 7 14 -6 0 -13 -4 -16 -10z"/>
</g>
</svg>
